<svg preserveAspectRatio="none" overflow="visible" style="display: block;" width="13" height="13" viewBox="0 0 13 13" fill="none" xmlns="http://www.w3.org/2000/svg">
<g id="bi:stars" clip-path="url(#clip0_0_4)">
<path id="Vector" d="M6.22195 5.07643C6.31133 4.8083 6.68995 4.8083 6.77933 5.07643L7.30339 6.65024C7.41874 6.9962 7.61309 7.31054 7.87103 7.56834C8.12898 7.82615 8.44342 8.02033 8.78945 8.13549L10.3624 8.65955C10.6306 8.74893 10.6306 9.12755 10.3624 9.21693L8.78864 9.74099C8.44267 9.85634 8.12833 10.0507 7.87053 10.3086C7.61273 10.5666 7.41855 10.881 7.30339 11.2271L6.77933 12.8001C6.76006 12.8588 6.72274 12.9099 6.67269 12.9461C6.62265 12.9824 6.56243 13.0019 6.50064 13.0019C6.43884 13.0019 6.37863 12.9824 6.32858 12.9461C6.27854 12.9099 6.24122 12.8588 6.22195 12.8001L5.69789 11.2262C5.58262 10.8804 5.38839 10.5661 5.1306 10.3083C4.8728 10.0505 4.55852 9.85626 4.21264 9.74099L2.63883 9.21693C2.58011 9.19766 2.52899 9.16034 2.49274 9.11029C2.45649 9.06025 2.43698 9.00003 2.43698 8.93824C2.43698 8.87644 2.45649 8.81623 2.49274 8.76618C2.52899 8.71614 2.58011 8.67882 2.63883 8.65955L4.21264 8.13549C4.55852 8.02022 4.8728 7.82599 5.1306 7.5682C5.38839 7.3104 5.58262 6.99611 5.69789 6.65024L6.22195 5.07643ZM3.08326 0.933487C3.09491 0.898301 3.11736 0.867682 3.14741 0.84598C3.17745 0.824278 3.21357 0.812597 3.25064 0.812597C3.2877 0.812597 3.32383 0.824278 3.35387 0.84598C3.38392 0.867682 3.40636 0.898301 3.41801 0.933487L3.73245 1.87761C3.87301 2.29849 4.20289 2.62836 4.62376 2.76892L5.56789 3.08336C5.60307 3.09501 5.63369 3.11746 5.6554 3.1475C5.6771 3.17755 5.68878 3.21367 5.68878 3.25074C5.68878 3.2878 5.6771 3.32392 5.6554 3.35397C5.63369 3.38402 5.60307 3.40646 5.56789 3.41811L4.62376 3.73255C4.41619 3.80171 4.22758 3.91826 4.07287 4.07297C3.91816 4.22768 3.80161 4.41629 3.73245 4.62386L3.41801 5.56799C3.40636 5.60317 3.38392 5.63379 3.35387 5.65549C3.32383 5.6772 3.2877 5.68888 3.25064 5.68888C3.21357 5.68888 3.17745 5.6772 3.14741 5.65549C3.11736 5.63379 3.09491 5.60317 3.08326 5.56799L2.76883 4.62386C2.69967 4.41629 2.58312 4.22768 2.42841 4.07297C2.2737 3.91826 2.08509 3.80171 1.87751 3.73255L0.933389 3.41811C0.898204 3.40646 0.867585 3.38402 0.845883 3.35397C0.824181 3.32392 0.8125 3.2878 0.8125 3.25074C0.8125 3.21367 0.824181 3.17755 0.845883 3.1475C0.867585 3.11746 0.898204 3.09501 0.933389 3.08336L1.87751 2.76892C2.08509 2.69977 2.2737 2.58322 2.42841 2.42851C2.58312 2.2738 2.69967 2.08519 2.76883 1.87761L3.08326 0.933487ZM8.82682 0.081174C8.83484 0.0580391 8.84988 0.0379782 8.86982 0.0237803C8.88977 0.00958243 8.91365 0.00195312 8.93814 0.00195312C8.96262 0.00195313 8.9865 0.00958243 9.00645 0.0237803C9.0264 0.0379782 9.04143 0.0580391 9.04945 0.081174L9.25907 0.710049C9.35251 0.991174 9.5727 1.21136 9.85382 1.3048L10.4827 1.51442C10.5058 1.52245 10.5259 1.53747 10.5401 1.55742C10.5543 1.57737 10.5619 1.60125 10.5619 1.62574C10.5619 1.65022 10.5543 1.6741 10.5401 1.69405C10.5259 1.714 10.5058 1.72903 10.4827 1.73705L9.85382 1.94667C9.71528 1.99276 9.58939 2.07051 9.48615 2.17375C9.38291 2.277 9.30516 2.40288 9.25907 2.54142L9.04945 3.1703C9.04143 3.19343 9.0264 3.2135 9.00645 3.22769C8.9865 3.24189 8.96262 3.24952 8.93814 3.24952C8.91365 3.24952 8.88977 3.24189 8.86982 3.22769C8.84988 3.2135 8.83484 3.19343 8.82682 3.1703L8.6172 2.54142C8.57111 2.40288 8.49336 2.277 8.39012 2.17375C8.28688 2.07051 8.16099 1.99276 8.02245 1.94667L7.39439 1.73705C7.37125 1.72903 7.35119 1.714 7.33699 1.69405C7.3228 1.6741 7.31517 1.65022 7.31517 1.62574C7.31517 1.60125 7.3228 1.57737 7.33699 1.55742C7.35119 1.53747 7.37125 1.52245 7.39439 1.51442L8.02326 1.3048C8.30439 1.21136 8.52457 0.991174 8.61801 0.710049L8.82682 0.081174Z" fill="#6865FF"/>
</g>
<defs>
<clipPath id="clip0_0_4">
<rect width="13" height="13" fill="white"/>
</clipPath>
</defs>
</svg>
